<svg width="7" height="9" viewBox="0 0 7 9" fill="none" xmlns="http://www.w3.org/2000/svg">
<path d="M2.72656 0.742188H2.75C2.77604 0.742188 2.88542 0.859375 3.07812 1.09375C3.22396 1.23438 3.38542 1.30469 3.5625 1.30469C4.13542 1.11719 4.54948 1.02344 4.80469 1.02344C4.80469 1.04427 4.89844 1.09896 5.08594 1.1875L5.82031 1.77344C6.05469 2.1224 6.17188 2.34635 6.17188 2.44531C6.17188 2.86198 6.07031 3.11719 5.86719 3.21094C5.86719 3.25781 5.63802 3.40625 5.17969 3.65625L4.69531 3.91406C4.32552 4.17969 4.14062 4.39583 4.14062 4.5625C4.03646 4.59375 3.89062 4.78906 3.70312 5.14844C3.64062 5.14844 3.49219 5.34375 3.25781 5.73438C3.24219 5.80208 3.11979 6.03385 2.89062 6.42969C2.88021 6.58073 2.80469 6.78385 2.66406 7.03906L2.52344 7.42969C2.52344 7.57031 2.59115 7.64062 2.72656 7.64062C2.94531 7.77604 3.54688 7.96094 4.53125 8.19531H4.69531C4.79427 8.19531 4.90104 8.07292 5.01562 7.82812L5.0625 7.52344C4.98958 7.02865 4.82812 6.78125 4.57812 6.78125C4.11458 6.78125 3.88281 6.96615 3.88281 7.33594C4.0026 7.67969 4.17969 7.85156 4.41406 7.85156C4.63281 7.83594 4.74219 7.72656 4.74219 7.52344V7.38281C4.6849 7.17448 4.61458 7.05208 4.53125 7.01562H4.36719C4.13802 7.01562 4.02344 7.1224 4.02344 7.33594C4.02344 7.50781 4.13021 7.59375 4.34375 7.59375H4.36719C4.47656 7.59375 4.53125 7.53906 4.53125 7.42969C4.53125 7.38281 4.46875 7.32031 4.34375 7.24219H4.1875L4.16406 7.33594L4.27344 7.45312H4.34375L4.41406 7.40625H4.4375L4.32031 7.52344C4.20052 7.46615 4.125 7.40365 4.09375 7.33594V7.15625L4.4375 7.0625C4.55729 7.18229 4.63542 7.28906 4.67188 7.38281C4.67188 7.49219 4.60938 7.60938 4.48438 7.73438C4.14583 7.66146 3.97656 7.54427 3.97656 7.38281C3.95052 7.38281 3.9349 7.34375 3.92969 7.26562V7.13281C3.96615 7.07552 4.11198 6.97396 4.36719 6.82812H4.46094C4.73698 7.02083 4.875 7.19792 4.875 7.35938L4.85156 7.61719V7.82812C4.85156 7.89583 4.70573 7.9349 4.41406 7.94531L4.34375 7.92188L4.23438 7.94531C3.83333 7.63802 3.63281 7.40365 3.63281 7.24219V7.17969C3.98698 6.74219 4.27865 6.52344 4.50781 6.52344H4.57812C5.04167 6.8776 5.3099 7.19531 5.38281 7.47656L5.42969 7.54688C5.42969 7.875 5.3151 8.22396 5.08594 8.59375C4.92969 8.71875 4.80729 8.78125 4.71875 8.78125C4.08333 8.4375 3.48177 8.26562 2.91406 8.26562C2.57031 8.125 2.20833 8.05469 1.82812 8.05469H1.64844C1.26302 8.14844 1.01562 8.22656 0.90625 8.28906L0.882812 8.26562V8.24219C1.34115 7.91406 1.71094 7.52865 1.99219 7.08594C2.10156 7.03385 2.23958 6.80729 2.40625 6.40625L2.82031 5.6875C2.82031 5.64062 2.86719 5.53906 2.96094 5.38281C3.16406 4.83594 3.34896 4.5625 3.51562 4.5625C3.65104 4.46875 3.71875 4.35417 3.71875 4.21875C3.89583 4.13542 4.08073 3.93229 4.27344 3.60938C4.32031 3.60938 4.41406 3.53125 4.55469 3.375L4.875 3.14844L4.82812 3.10156C5.10938 2.91927 5.36458 2.66146 5.59375 2.32812V2.11719C5.40625 1.77865 5.24479 1.60938 5.10938 1.60938C4.84375 1.45312 4.67448 1.375 4.60156 1.375H4.48438C3.90104 1.53646 3.60938 1.69271 3.60938 1.84375C3.48438 1.98438 3.42188 2.17708 3.42188 2.42188V2.5625L3.35156 2.63281L3.32812 2.60938V2.46875C3.32812 2.07812 3.21354 1.6276 2.98438 1.11719L2.72656 0.8125V0.742188Z" fill="white"/>
</svg>
