<svg width="29" height="28" viewBox="0 0 29 28" fill="none" xmlns="http://www.w3.org/2000/svg">
<path d="M2.125 2.16992L2.14844 2.19336V2.26953C2.00391 2.43359 1.93164 2.56055 1.93164 2.65039L1.95508 2.72656H1.9082V2.75H1.97852L2.38867 2.70312H2.55273C2.58398 2.70312 2.59961 2.72656 2.59961 2.77344H2.64648C2.90039 2.77344 3.05273 2.79688 3.10352 2.84375H3.12695L3.94141 2.91992H4.22852L5.06641 3.20703C5.16016 3.24219 5.20703 3.30664 5.20703 3.40039C5.25781 3.40039 5.33789 3.54492 5.44727 3.83398C5.32227 4.35352 5.11523 4.72266 4.82617 4.94141L4.41602 5.32812C4.19727 5.55078 3.98242 5.69531 3.77148 5.76172C3.74414 5.82812 3.59375 5.89258 3.32031 5.95508C3.14844 6.08008 2.91602 6.14258 2.62305 6.14258L2.19531 6.21875L1.76172 6.17188L1.81445 6.38867L1.79102 6.41211C1.80664 6.56445 1.83789 6.66016 1.88477 6.69922L1.9082 7.17969L1.88477 7.71289L2.10156 8.7207C2.13281 8.7207 2.14844 8.76172 2.14844 8.84375C2.28516 9.18359 2.52344 9.44922 2.86328 9.64062C2.86328 9.70312 3.02344 9.79102 3.34375 9.9043H3.53125V9.97461L3.34375 9.99805C2.77734 9.85352 2.35547 9.78125 2.07812 9.78125C1.62109 9.78125 1.07031 9.90234 0.425781 10.1445L0.185547 10.168L0.162109 10.1445V10.0742C0.373047 10.0742 0.660156 9.89648 1.02344 9.54102C1.26172 9.34961 1.38086 9.10156 1.38086 8.79688L1.45117 8.43359L1.42773 8.36328L1.45117 8.24023L1.4043 7.7832L1.42773 7.51953V6.98633C1.42773 6.74805 1.38867 6.45117 1.31055 6.0957L1.38086 6.07227V6.02539C1.22852 5.91211 1.09375 5.85547 0.976562 5.85547H0.876953C0.876953 5.92188 0.861328 5.95508 0.830078 5.95508C0.861328 6.02539 0.894531 6.06445 0.929688 6.07227H1.02344L1.07031 6.02539V6.00195L1.04688 5.97852V5.95508H1.07031L1.11719 6.00195V6.04883C1.11719 6.0957 1.05469 6.12695 0.929688 6.14258C0.769531 6.07617 0.689453 5.98047 0.689453 5.85547C0.740234 5.72656 0.851562 5.66211 1.02344 5.66211H1.16406L1.28711 5.68555V5.66211C1.28711 5.25977 1.26367 5.05859 1.2168 5.05859L1.24023 4.89453V4.67773L1.16406 4.31445V4.26758L1.2168 3.92773L1.14062 3.16016C0.941406 3.25391 0.806641 3.30078 0.736328 3.30078C0.482422 3.25 0.355469 3.13867 0.355469 2.9668V2.94336C0.386719 2.76367 0.464844 2.67383 0.589844 2.67383H0.712891L0.830078 2.79688L0.806641 2.9668H0.830078C1.23633 2.9668 1.66797 2.70117 2.125 2.16992ZM1.73828 3.54102V3.73438L1.76172 3.85742L1.73828 4.00391V4.12109L1.79102 4.29102L1.73828 4.33789V4.4375L1.76172 4.53125L1.73828 4.70117V4.91797L1.76172 5.56836L1.81445 5.61523V5.80859L2.17188 5.83203H2.38867C2.7168 5.75 3.21094 5.52539 3.87109 5.1582C4.23438 4.86523 4.44141 4.56836 4.49219 4.26758V4.19141C4.37891 3.79297 4.23438 3.59375 4.05859 3.59375C3.84375 3.39844 3.58984 3.30078 3.29688 3.30078H3.27344L3.19727 3.32422L3.08008 3.30078H2.86328C2.12891 3.30078 1.76172 3.3418 1.76172 3.42383L1.73828 3.54102ZM6.99414 2.91406C7.10742 2.91406 7.47461 3.08594 8.0957 3.42969L8.35352 3.45312H8.4707C8.56055 3.45312 8.73242 3.375 8.98633 3.21875L9.10352 3.19531L9.12695 3.21875V3.26562C9.0293 3.37109 8.92773 3.51953 8.82227 3.71094L8.86914 3.82812L8.8457 3.85156L8.91602 4.29688L8.86914 4.34375V4.36719C8.95898 4.48438 9.01367 4.61719 9.0332 4.76562C9.07617 4.76562 9.1543 4.95312 9.26758 5.32812C9.43945 5.59766 9.52539 5.80078 9.52539 5.9375C9.57227 6.00391 9.5957 6.18359 9.5957 6.47656V6.54688C9.70508 6.54688 9.8457 6.47656 10.0176 6.33594V6.28906L9.99414 6.26562V6.24219L10.0176 6.21875H10.041L10.1113 6.28906V6.42969C10.1113 6.61328 9.99414 6.75391 9.75977 6.85156C9.75977 6.93359 9.79883 6.99609 9.87695 7.03906L9.85352 7.15625C10.041 7.62891 10.1738 8.04297 10.252 8.39844C10.3145 8.49609 10.3613 8.62891 10.3926 8.79688H10.3691C10.7168 9.64062 11.0605 10.1406 11.4004 10.2969L11.8223 10.5078V10.5547C11.4707 10.4531 10.9238 10.2344 10.1816 9.89844H9.94727C9.63477 9.89844 9.24414 10 8.77539 10.2031C8.71289 10.1797 8.68164 10.1562 8.68164 10.1328C9.18555 9.83594 9.45117 9.57031 9.47852 9.33594C9.52148 9.33594 9.56055 8.97656 9.5957 8.25781L9.52539 7.83594C9.49414 7.83594 9.45508 7.69531 9.4082 7.41406L9.38477 7.39062L9.4082 7.27344C9.19727 7.16016 9.06445 7.07422 9.00977 7.01562C8.72852 7.07031 8.58789 7.125 8.58789 7.17969L7.95508 7.22656H7.76758C7.68555 7.22656 7.61523 7.25 7.55664 7.29688H7.43945C7.43945 7.34375 7.4082 7.39062 7.3457 7.4375L7.36914 7.46094V7.48438C7.32227 7.55859 7.26758 7.87891 7.20508 8.44531L7.22852 8.51562L7.20508 8.89062V9.07812L7.18164 9.21875C7.29102 9.48438 7.40039 9.67188 7.50977 9.78125L7.81445 10.1094L7.76758 10.1562C7.10352 9.89062 6.46289 9.75781 5.8457 9.75781H5.79883C5.61914 9.75781 5.35352 9.78906 5.00195 9.85156L4.97852 9.82812V9.78125C5.57617 9.58594 5.98242 9.27344 6.19727 8.84375C6.43164 8.375 6.60352 7.96875 6.71289 7.625C6.74414 7.61719 6.77539 7.57812 6.80664 7.50781L6.7832 7.4375H6.75977L5.82227 7.85938C5.68164 7.94922 5.61133 8.04297 5.61133 8.14062V8.21094C5.67383 8.32031 5.76758 8.375 5.89258 8.375C6.04883 8.33984 6.12695 8.26172 6.12695 8.14062C6.10742 8.07031 6.04492 8.01562 5.93945 7.97656C5.87305 7.99219 5.81836 8.03125 5.77539 8.09375C5.77539 8.16406 5.82227 8.21094 5.91602 8.23438L5.98633 8.11719L5.91602 8.07031L5.8457 8.11719V8.09375L5.91602 8.02344H5.93945L6.0332 8.11719V8.21094L5.96289 8.28125H5.91602C5.77539 8.25 5.70508 8.21094 5.70508 8.16406V8.04688C5.70508 7.9375 5.7832 7.88281 5.93945 7.88281C6.04883 7.88281 6.15039 7.96094 6.24414 8.11719V8.21094C6.24414 8.36328 6.12695 8.45703 5.89258 8.49219H5.72852C5.50977 8.44531 5.40039 8.35156 5.40039 8.21094V8.1875C5.40039 7.89453 5.5332 7.69141 5.79883 7.57812L7.01758 6.96875V6.94531L6.99414 6.92188L7.1582 6.61719C7.1582 6.44141 7.2207 6.28516 7.3457 6.14844V5.82031C7.3457 5.74219 7.40039 5.67188 7.50977 5.60938L7.67383 5C7.73633 4.82422 7.79102 4.55078 7.83789 4.17969C7.68164 3.73047 7.54102 3.45703 7.41602 3.35938C7.41602 3.32813 7.2832 3.21094 7.01758 3.00781L6.9707 2.9375L6.99414 2.91406ZM7.50977 6.78125L7.65039 6.82812C8.43164 6.74609 8.82227 6.69141 8.82227 6.66406C8.82617 6.63281 8.88086 6.60938 8.98633 6.59375V6.54688H8.91602V6.47656L8.93945 6.38281L8.51758 4.97656L8.40039 4.74219V4.60156H8.35352C8.33008 4.60156 8.26758 4.73438 8.16602 5C8.02539 5.52734 7.9082 5.82422 7.81445 5.89062C7.67383 6.17188 7.57227 6.46875 7.50977 6.78125ZM14.2715 2.56836V2.63281C13.959 3.00781 13.8027 3.35938 13.8027 3.6875C13.7441 3.82812 13.7148 4.00586 13.7148 4.2207V4.33203L13.6738 4.37891L13.627 4.30859V4.17383C13.627 3.7793 13.4688 3.50391 13.1523 3.34766L12.6367 3.17188H12.5312C12.4648 3.17188 12.3223 3.23828 12.1035 3.37109C11.9785 3.39453 11.8477 3.5 11.7109 3.6875L11.6055 3.88672V3.99805C11.6055 4.16992 11.8418 4.45312 12.3145 4.84766L12.2734 4.88867C12.3633 4.9082 12.5566 5.06641 12.8535 5.36328C13.1152 5.75 13.3164 5.94336 13.457 5.94336C13.5156 5.99023 13.6523 6.17578 13.8672 6.5C13.9844 6.67578 14.0762 6.9668 14.1426 7.37305C14.2441 7.55664 14.2949 7.68164 14.2949 7.74805C14.2754 7.9082 14.1973 8.08008 14.0605 8.26367C13.8691 8.61523 13.6523 8.91992 13.4102 9.17773C12.8477 9.5957 12.5254 9.80469 12.4434 9.80469L12.25 9.82812C11.8906 9.73047 11.5391 9.51367 11.1953 9.17773C11.0664 9.11523 11.002 8.95898 11.002 8.70898C10.9629 8.70898 10.9277 8.60547 10.8965 8.39844C10.8965 8.02344 10.9902 7.77734 11.1777 7.66016C11.1777 7.51953 11.2988 7.4082 11.541 7.32617C11.541 7.29883 11.6211 7.26953 11.7812 7.23828H11.8457C12.2285 7.375 12.4277 7.45703 12.4434 7.48438C12.4863 7.53906 12.5078 7.58984 12.5078 7.63672V7.97656C12.4609 8.25781 12.3613 8.39844 12.209 8.39844C11.9941 8.37109 11.8867 8.26758 11.8867 8.08789V8.04102C11.9922 7.87695 12.0703 7.78711 12.1211 7.77148H12.2969V7.74805C12.2227 7.63477 12.0781 7.53906 11.8633 7.46094L11.8457 7.4375H11.8223C11.6113 7.55078 11.418 7.78125 11.2422 8.12891V8.15234C11.2422 8.70312 11.2852 8.97852 11.3711 8.97852C11.6211 9.21289 11.8711 9.35547 12.1211 9.40625C12.4219 9.37109 12.623 9.30273 12.7246 9.20117C13.1973 8.73242 13.498 8.32422 13.627 7.97656L13.6504 7.8418V7.79492C13.498 7.12695 13.3262 6.65039 13.1348 6.36523C13.0293 6.30273 12.9277 6.16211 12.8301 5.94336C12.6074 5.69727 12.3574 5.51758 12.0801 5.4043C11.4473 5.07227 11.1309 4.82031 11.1309 4.64844L11.0664 4.17383C11.0781 4.04492 11.2227 3.80078 11.5 3.44141C11.6523 3.35156 11.875 3.17969 12.168 2.92578L12.3789 2.83789C12.582 2.83789 12.9551 2.92578 13.498 3.10156C13.7363 3.10156 13.9727 2.93164 14.207 2.5918L14.2715 2.56836ZM18.6074 1.56055H18.6309V1.61328C18.459 1.63672 18.1562 1.81055 17.7227 2.13477C17.3906 2.41992 17.1328 2.80273 16.9492 3.2832C16.7734 3.58008 16.6641 3.88672 16.6211 4.20312C16.5352 4.29297 16.4434 4.625 16.3457 5.19922V5.84961L16.2695 6.61133V7.29102L16.2168 7.36719C16.3613 8.1875 16.4785 8.59766 16.5684 8.59766C16.7598 9.01953 16.9023 9.23828 16.9961 9.25391C17.2695 9.60547 17.5293 9.8418 17.7754 9.96289C17.9355 9.96289 18.0703 10.0762 18.1797 10.3027C18.6211 10.4043 18.9883 10.5605 19.2812 10.7715L20.0137 11.1348C20.6465 11.3262 21.0723 11.4219 21.291 11.4219H21.7715C22.1426 11.4219 22.3594 11.2578 22.4219 10.9297L22.4453 10.8008C22.4453 10.4844 22.3379 10.3262 22.123 10.3262C21.9355 10.3809 21.8418 10.5117 21.8418 10.7188V10.748C21.8418 10.7988 21.918 10.8418 22.0703 10.877H22.0938C22.1875 10.877 22.2461 10.8242 22.2695 10.7188C22.2266 10.5781 22.1855 10.5078 22.1465 10.5078H22.0469L21.9707 10.5898V10.6953L22.0703 10.8008C22.1211 10.8008 22.1465 10.748 22.1465 10.6426L22.1934 10.6953V10.748L22.123 10.8242H22.0938C21.9961 10.8242 21.9297 10.7715 21.8945 10.666C21.8945 10.5762 21.9453 10.498 22.0469 10.4316H22.123C22.2715 10.459 22.3457 10.5293 22.3457 10.6426C22.3457 10.791 22.2871 10.9043 22.1699 10.9824H22.0176C21.834 10.9473 21.7422 10.8594 21.7422 10.7188V10.6133C21.7422 10.4102 21.8691 10.2793 22.123 10.2207C22.4395 10.2207 22.5977 10.4648 22.5977 10.9531C22.5977 11.3945 22.2793 11.6641 21.6426 11.7617L21.2441 11.8145C20.6152 11.8145 19.8867 11.5801 19.0586 11.1113L17.5 10.4082L16.5215 9.85742C16.2871 9.75195 16.0859 9.69922 15.918 9.69922C15.4297 9.74219 14.9531 9.91602 14.4883 10.2207H14.2363C14.1504 10.2207 14.0996 10.1953 14.084 10.1445V10.1152C14.4004 10.1152 14.8105 9.77539 15.3145 9.0957C15.4316 8.95898 15.5312 8.45312 15.6133 7.57812C15.6797 7.57812 15.7305 7.16797 15.7656 6.34766V6.03711L15.7891 6.00781L15.7656 5.98438V5.43359L15.8184 5.22266V5.14648L15.7656 4.93555V4.22656C15.7656 3.98828 15.6406 3.69141 15.3906 3.33594L14.9629 3.13086H14.8867C14.7383 3.13086 14.6641 3.19922 14.6641 3.33594C14.6641 3.44141 14.7383 3.49414 14.8867 3.49414L14.9102 3.4707V3.36523L14.7871 3.33594C14.7871 3.30078 14.8125 3.2832 14.8633 3.2832C14.9297 3.31055 14.9629 3.33789 14.9629 3.36523V3.4707L14.8867 3.54688H14.8105C14.627 3.52344 14.5352 3.43555 14.5352 3.2832V3.25977C14.5352 3.08398 14.6602 2.99609 14.9102 2.99609L15.5664 3.04883C15.7734 3.04883 16.543 2.61328 17.875 1.74219L18.6074 1.56055ZM19.8496 2.82031H20.459C20.8887 2.82031 21.1934 2.89844 21.373 3.05469C21.416 3.05469 21.4785 3.10937 21.5605 3.21875C21.8613 3.33594 22.0801 3.52344 22.2168 3.78125L22.6152 4.15625C22.6152 4.25391 22.709 4.43359 22.8965 4.69531C23.0527 4.87109 23.1309 5.19141 23.1309 5.65625L23.1543 5.86719V6.80469C23.0059 7.17188 22.8809 7.4375 22.7793 7.60156C22.5566 7.92969 22.3066 8.35156 22.0293 8.86719C21.998 8.86719 21.9824 8.89844 21.9824 8.96094C21.9082 8.96094 21.6973 9.1875 21.3496 9.64062C21.2324 9.76562 21.1152 9.82812 20.998 9.82812C20.752 9.82812 20.5254 9.74219 20.3184 9.57031C20.1191 9.48047 19.8691 9.33984 19.5684 9.14844C19.5215 9.14844 19.3418 9.05469 19.0293 8.86719C18.6895 8.71484 18.4629 8.49609 18.3496 8.21094L17.9277 7.32031H17.9043L17.9277 7.20312C17.8613 7.07812 17.8145 6.76562 17.7871 6.26562C17.7402 6.26562 17.7168 6.125 17.7168 5.84375L17.7871 5.79688L17.7637 5.5625V5.16406C17.7637 5.11719 17.8105 5.01562 17.9043 4.85938C17.9043 4.77734 18.0371 4.49609 18.3027 4.01562L18.5605 3.61719C18.5605 3.54297 18.7402 3.37109 19.0996 3.10156C19.2246 3.10156 19.4043 3.01562 19.6387 2.84375L19.8496 2.82031ZM18.4434 5.84375V6.19531C18.4434 6.70703 18.5215 7.03516 18.6777 7.17969C18.6777 7.23828 18.8027 7.50391 19.0527 7.97656C19.1973 8.04297 19.4707 8.25391 19.873 8.60938C20.1816 8.76172 20.4082 8.91797 20.5527 9.07812L20.8574 9.14844L21.2793 8.86719C21.4746 8.70703 21.6699 8.42578 21.8652 8.02344C22.209 7.30469 22.3809 6.67188 22.3809 6.125C22.3184 5.72266 22.2168 5.40234 22.0762 5.16406C22.041 4.94922 21.8691 4.64453 21.5605 4.25L21.1152 3.89844L20.4121 3.61719H20.2246C20.123 3.61719 19.8887 3.75 19.5215 4.01562C19.2637 4.24219 19.0449 4.53125 18.8652 4.88281L18.4434 5.84375ZM25.9316 0.845703C26.1035 0.943359 26.3652 1.17188 26.7168 1.53125C27.2363 1.88281 27.7598 2.17578 28.2871 2.41016C28.5957 2.53516 28.7832 2.63281 28.8496 2.70312L28.8027 2.75H28.7266L28.457 2.72656C28.0312 2.79688 27.8184 2.92773 27.8184 3.11914C27.623 3.41602 27.5254 4.24414 27.5254 5.60352V5.91992L27.4785 6.14258C27.4941 6.49023 27.5254 6.7168 27.5723 6.82227L27.625 9.28906V9.38867L27.6719 9.58203V10.0215C27.6719 10.4824 27.7871 10.7832 28.0176 10.9238L28.1406 10.9707C28.2305 10.9434 28.2949 10.8789 28.334 10.7773C28.3105 10.6641 28.2773 10.6074 28.2344 10.6074H28.2109L28.1641 10.6543V10.707L28.2109 10.7773H28.1641L28.1172 10.7305V10.707C28.125 10.6094 28.1484 10.5605 28.1875 10.5605H28.2871C28.3848 10.6152 28.4336 10.6875 28.4336 10.7773C28.3906 11.0039 28.293 11.1172 28.1406 11.1172H28.1172C27.8242 11.1172 27.5039 10.9961 27.1562 10.7539C26.9961 10.7188 26.916 10.6855 26.916 10.6543C27.0957 10.5215 27.1855 10.4004 27.1855 10.291C27.1348 10.0059 26.9941 9.58984 26.7637 9.04297L26.4238 8.09375C26.4238 8.01172 26.3672 7.83203 26.2539 7.55469C26.2539 7.49219 26.1133 7.19922 25.832 6.67578C25.6328 6.07812 25.5039 5.77734 25.4453 5.77344H25.416C25.3105 5.77344 25.1895 6.30273 25.0527 7.36133L25.0234 7.38477V7.46094L25.1465 7.90039V8.2168L25.3457 9.21875C25.4473 9.41016 25.6016 9.58789 25.8086 9.75195C25.8242 9.80273 26.0215 9.9082 26.4004 10.0684V10.0918L26.3477 10.1445C26.0469 10.1445 25.5645 10.0059 24.9004 9.72852L24.4844 9.70508H24.3906C24.3047 9.70508 23.9453 9.85156 23.3125 10.1445H23.1895V10.1211C23.3379 10 23.4922 9.83594 23.6523 9.62891C23.8398 9.59766 24.0605 9.27344 24.3145 8.65625L24.5137 7.99414V7.75391L24.5605 7.67773V7.53125L24.6074 7.14453V7.06836L24.6309 6.35938L24.6074 5.62695V5.38672L24.584 5.2168L24.6309 5.16406C24.5332 4.71875 24.4277 4.32812 24.3145 3.99219C24.0918 3.50781 23.8633 3.26562 23.6289 3.26562H23.2656C22.9688 3.26562 22.8203 3.3457 22.8203 3.50586C22.8555 3.60352 22.9219 3.65234 23.0195 3.65234C23.0859 3.62891 23.1191 3.60547 23.1191 3.58203V3.45898L22.9727 3.43555L23.0195 3.38281C23.1484 3.38281 23.2129 3.44922 23.2129 3.58203C23.1895 3.69531 23.1328 3.75195 23.043 3.75195C22.8125 3.72461 22.6973 3.62695 22.6973 3.45898V3.43555C22.7168 3.24023 22.8086 3.14258 22.9727 3.14258H23.1895C23.4668 3.14258 23.8496 2.93945 24.3379 2.5332C24.5059 2.37305 24.6699 2.25781 24.8301 2.1875C24.8418 2.15234 24.9648 2.08008 25.1992 1.9707C25.3398 1.86914 25.4863 1.80469 25.6387 1.77734H25.6855L25.7383 1.82422C25.2812 2.17578 25.0527 2.46875 25.0527 2.70312V2.72656C25.0527 2.91016 25.1914 3.37305 25.4688 4.11523C25.5234 4.13086 25.5645 4.26172 25.5918 4.50781C25.6387 4.50781 25.6621 4.61328 25.6621 4.82422C25.7949 5.05859 25.8613 5.24609 25.8613 5.38672C26.1348 5.72266 26.2812 6.03125 26.3008 6.3125C26.3438 6.32031 26.4824 6.62891 26.7168 7.23828H26.7402C26.7402 7.19141 26.7734 7.14258 26.8398 7.0918L26.9395 6.48242V6.24219L27.0625 5.33398C27.0625 4.58398 27.0215 3.89453 26.9395 3.26562L26.8633 3.18945V3.06641L26.8867 3.04297V3.01953C26.8398 3.01953 26.8086 2.88086 26.793 2.60352C26.7305 2.60352 26.6816 2.44141 26.6465 2.11719C26.5527 1.82813 26.3398 1.44531 26.0078 0.96875L25.9082 0.869141L25.9316 0.845703ZM13.4013 27.508C13.6813 27.164 14.1053 26.716 14.6733 26.164C15.2653 25.58 15.7373 25.076 16.0893 24.652C16.4493 24.22 16.7533 23.716 17.0013 23.14C17.2573 22.556 17.3853 21.912 17.3853 21.208C17.3853 20.584 17.2533 20.084 16.9893 19.708C16.7333 19.324 16.3813 19.132 15.9333 19.132C15.6933 19.132 15.4653 19.2 15.2493 19.336C15.0333 19.464 14.8613 19.64 14.7333 19.864C14.6053 20.088 14.5413 20.328 14.5413 20.584C14.5413 20.808 14.5693 20.964 14.6253 21.052C14.6893 21.132 14.7813 21.196 14.9013 21.244C14.9893 21.276 15.0533 21.316 15.0933 21.364C15.1333 21.404 15.1533 21.484 15.1533 21.604C15.1533 21.74 15.1053 21.86 15.0093 21.964C14.9133 22.068 14.7853 22.12 14.6253 22.12C14.4333 22.12 14.2613 22.036 14.1093 21.868C13.9573 21.7 13.8813 21.488 13.8813 21.232C13.8813 20.72 13.9973 20.292 14.2293 19.948C14.4613 19.596 14.7453 19.336 15.0813 19.168C15.4173 19 15.7373 18.916 16.0413 18.916C16.4413 18.916 16.8013 19.012 17.1213 19.204C17.4493 19.396 17.7053 19.676 17.8893 20.044C18.0813 20.404 18.1773 20.832 18.1773 21.328C18.1773 22.024 18.0373 22.652 17.7573 23.212C17.4853 23.764 17.1573 24.236 16.7733 24.628C16.3973 25.02 15.9213 25.452 15.3453 25.924C15.0493 26.164 14.8093 26.364 14.6253 26.524C14.4493 26.684 14.3013 26.844 14.1813 27.004C14.1573 27.036 14.1453 27.076 14.1453 27.124C14.1453 27.196 14.1853 27.232 14.2653 27.232L16.1493 27.244C16.6213 27.244 16.9813 27.204 17.2293 27.124C17.4853 27.044 17.6773 26.868 17.8053 26.596C17.9413 26.324 18.0093 25.896 18.0093 25.312H18.2373V28H13.4013V27.508Z" fill="white"/>
</svg>
