<svg width="29" height="12" viewBox="0 0 29 12" fill="none" xmlns="http://www.w3.org/2000/svg">
<path d="M2.02148 2.16992L2.04492 2.19336V2.26953C1.90039 2.43359 1.82812 2.56055 1.82812 2.65039L1.85156 2.72656H1.80469V2.75H1.875L2.28516 2.70312H2.44922C2.48047 2.70312 2.49609 2.72656 2.49609 2.77344H2.54297C2.79688 2.77344 2.94922 2.79688 3 2.84375H3.02344L3.83789 2.91992H4.125L4.96289 3.20703C5.05664 3.24219 5.10352 3.30664 5.10352 3.40039C5.1543 3.40039 5.23438 3.54492 5.34375 3.83398C5.21875 4.35352 5.01172 4.72266 4.72266 4.94141L4.3125 5.32812C4.09375 5.55078 3.87891 5.69531 3.66797 5.76172C3.64062 5.82812 3.49023 5.89258 3.2168 5.95508C3.04492 6.08008 2.8125 6.14258 2.51953 6.14258L2.0918 6.21875L1.6582 6.17188L1.71094 6.38867L1.6875 6.41211C1.70312 6.56445 1.73438 6.66016 1.78125 6.69922L1.80469 7.17969L1.78125 7.71289L1.99805 8.7207C2.0293 8.7207 2.04492 8.76172 2.04492 8.84375C2.18164 9.18359 2.41992 9.44922 2.75977 9.64062C2.75977 9.70312 2.91992 9.79102 3.24023 9.9043H3.42773V9.97461L3.24023 9.99805C2.67383 9.85352 2.25195 9.78125 1.97461 9.78125C1.51758 9.78125 0.966797 9.90234 0.322266 10.1445L0.0820312 10.168L0.0585938 10.1445V10.0742C0.269531 10.0742 0.556641 9.89648 0.919922 9.54102C1.1582 9.34961 1.27734 9.10156 1.27734 8.79688L1.34766 8.43359L1.32422 8.36328L1.34766 8.24023L1.30078 7.7832L1.32422 7.51953V6.98633C1.32422 6.74805 1.28516 6.45117 1.20703 6.0957L1.27734 6.07227V6.02539C1.125 5.91211 0.990234 5.85547 0.873047 5.85547H0.773438C0.773438 5.92188 0.757812 5.95508 0.726562 5.95508C0.757812 6.02539 0.791016 6.06445 0.826172 6.07227H0.919922L0.966797 6.02539V6.00195L0.943359 5.97852V5.95508H0.966797L1.01367 6.00195V6.04883C1.01367 6.0957 0.951172 6.12695 0.826172 6.14258C0.666016 6.07617 0.585938 5.98047 0.585938 5.85547C0.636719 5.72656 0.748047 5.66211 0.919922 5.66211H1.06055L1.18359 5.68555V5.66211C1.18359 5.25977 1.16016 5.05859 1.11328 5.05859L1.13672 4.89453V4.67773L1.06055 4.31445V4.26758L1.11328 3.92773L1.03711 3.16016C0.837891 3.25391 0.703125 3.30078 0.632812 3.30078C0.378906 3.25 0.251953 3.13867 0.251953 2.9668V2.94336C0.283203 2.76367 0.361328 2.67383 0.486328 2.67383H0.609375L0.726562 2.79688L0.703125 2.9668H0.726562C1.13281 2.9668 1.56445 2.70117 2.02148 2.16992ZM1.63477 3.54102V3.73438L1.6582 3.85742L1.63477 4.00391V4.12109L1.6875 4.29102L1.63477 4.33789V4.4375L1.6582 4.53125L1.63477 4.70117V4.91797L1.6582 5.56836L1.71094 5.61523V5.80859L2.06836 5.83203H2.28516C2.61328 5.75 3.10742 5.52539 3.76758 5.1582C4.13086 4.86523 4.33789 4.56836 4.38867 4.26758V4.19141C4.27539 3.79297 4.13086 3.59375 3.95508 3.59375C3.74023 3.39844 3.48633 3.30078 3.19336 3.30078H3.16992L3.09375 3.32422L2.97656 3.30078H2.75977C2.02539 3.30078 1.6582 3.3418 1.6582 3.42383L1.63477 3.54102ZM6.89062 2.91406C7.00391 2.91406 7.37109 3.08594 7.99219 3.42969L8.25 3.45312H8.36719C8.45703 3.45312 8.62891 3.375 8.88281 3.21875L9 3.19531L9.02344 3.21875V3.26562C8.92578 3.37109 8.82422 3.51953 8.71875 3.71094L8.76562 3.82812L8.74219 3.85156L8.8125 4.29688L8.76562 4.34375V4.36719C8.85547 4.48438 8.91016 4.61719 8.92969 4.76562C8.97266 4.76562 9.05078 4.95312 9.16406 5.32812C9.33594 5.59766 9.42188 5.80078 9.42188 5.9375C9.46875 6.00391 9.49219 6.18359 9.49219 6.47656V6.54688C9.60156 6.54688 9.74219 6.47656 9.91406 6.33594V6.28906L9.89062 6.26562V6.24219L9.91406 6.21875H9.9375L10.0078 6.28906V6.42969C10.0078 6.61328 9.89062 6.75391 9.65625 6.85156C9.65625 6.93359 9.69531 6.99609 9.77344 7.03906L9.75 7.15625C9.9375 7.62891 10.0703 8.04297 10.1484 8.39844C10.2109 8.49609 10.2578 8.62891 10.2891 8.79688H10.2656C10.6133 9.64062 10.957 10.1406 11.2969 10.2969L11.7188 10.5078V10.5547C11.3672 10.4531 10.8203 10.2344 10.0781 9.89844H9.84375C9.53125 9.89844 9.14062 10 8.67188 10.2031C8.60938 10.1797 8.57812 10.1562 8.57812 10.1328C9.08203 9.83594 9.34766 9.57031 9.375 9.33594C9.41797 9.33594 9.45703 8.97656 9.49219 8.25781L9.42188 7.83594C9.39062 7.83594 9.35156 7.69531 9.30469 7.41406L9.28125 7.39062L9.30469 7.27344C9.09375 7.16016 8.96094 7.07422 8.90625 7.01562C8.625 7.07031 8.48438 7.125 8.48438 7.17969L7.85156 7.22656H7.66406C7.58203 7.22656 7.51172 7.25 7.45312 7.29688H7.33594C7.33594 7.34375 7.30469 7.39062 7.24219 7.4375L7.26562 7.46094V7.48438C7.21875 7.55859 7.16406 7.87891 7.10156 8.44531L7.125 8.51562L7.10156 8.89062V9.07812L7.07812 9.21875C7.1875 9.48438 7.29688 9.67188 7.40625 9.78125L7.71094 10.1094L7.66406 10.1562C7 9.89062 6.35938 9.75781 5.74219 9.75781H5.69531C5.51562 9.75781 5.25 9.78906 4.89844 9.85156L4.875 9.82812V9.78125C5.47266 9.58594 5.87891 9.27344 6.09375 8.84375C6.32812 8.375 6.5 7.96875 6.60938 7.625C6.64062 7.61719 6.67188 7.57812 6.70312 7.50781L6.67969 7.4375H6.65625L5.71875 7.85938C5.57812 7.94922 5.50781 8.04297 5.50781 8.14062V8.21094C5.57031 8.32031 5.66406 8.375 5.78906 8.375C5.94531 8.33984 6.02344 8.26172 6.02344 8.14062C6.00391 8.07031 5.94141 8.01562 5.83594 7.97656C5.76953 7.99219 5.71484 8.03125 5.67188 8.09375C5.67188 8.16406 5.71875 8.21094 5.8125 8.23438L5.88281 8.11719L5.8125 8.07031L5.74219 8.11719V8.09375L5.8125 8.02344H5.83594L5.92969 8.11719V8.21094L5.85938 8.28125H5.8125C5.67188 8.25 5.60156 8.21094 5.60156 8.16406V8.04688C5.60156 7.9375 5.67969 7.88281 5.83594 7.88281C5.94531 7.88281 6.04688 7.96094 6.14062 8.11719V8.21094C6.14062 8.36328 6.02344 8.45703 5.78906 8.49219H5.625C5.40625 8.44531 5.29688 8.35156 5.29688 8.21094V8.1875C5.29688 7.89453 5.42969 7.69141 5.69531 7.57812L6.91406 6.96875V6.94531L6.89062 6.92188L7.05469 6.61719C7.05469 6.44141 7.11719 6.28516 7.24219 6.14844V5.82031C7.24219 5.74219 7.29688 5.67188 7.40625 5.60938L7.57031 5C7.63281 4.82422 7.6875 4.55078 7.73438 4.17969C7.57812 3.73047 7.4375 3.45703 7.3125 3.35938C7.3125 3.32813 7.17969 3.21094 6.91406 3.00781L6.86719 2.9375L6.89062 2.91406ZM7.40625 6.78125L7.54688 6.82812C8.32812 6.74609 8.71875 6.69141 8.71875 6.66406C8.72266 6.63281 8.77734 6.60938 8.88281 6.59375V6.54688H8.8125V6.47656L8.83594 6.38281L8.41406 4.97656L8.29688 4.74219V4.60156H8.25C8.22656 4.60156 8.16406 4.73438 8.0625 5C7.92188 5.52734 7.80469 5.82422 7.71094 5.89062C7.57031 6.17188 7.46875 6.46875 7.40625 6.78125ZM14.168 2.56836V2.63281C13.8555 3.00781 13.6992 3.35938 13.6992 3.6875C13.6406 3.82812 13.6113 4.00586 13.6113 4.2207V4.33203L13.5703 4.37891L13.5234 4.30859V4.17383C13.5234 3.7793 13.3652 3.50391 13.0488 3.34766L12.5332 3.17188H12.4277C12.3613 3.17188 12.2188 3.23828 12 3.37109C11.875 3.39453 11.7441 3.5 11.6074 3.6875L11.502 3.88672V3.99805C11.502 4.16992 11.7383 4.45312 12.2109 4.84766L12.1699 4.88867C12.2598 4.9082 12.4531 5.06641 12.75 5.36328C13.0117 5.75 13.2129 5.94336 13.3535 5.94336C13.4121 5.99023 13.5488 6.17578 13.7637 6.5C13.8809 6.67578 13.9727 6.9668 14.0391 7.37305C14.1406 7.55664 14.1914 7.68164 14.1914 7.74805C14.1719 7.9082 14.0938 8.08008 13.957 8.26367C13.7656 8.61523 13.5488 8.91992 13.3066 9.17773C12.7441 9.5957 12.4219 9.80469 12.3398 9.80469L12.1465 9.82812C11.7871 9.73047 11.4355 9.51367 11.0918 9.17773C10.9629 9.11523 10.8984 8.95898 10.8984 8.70898C10.8594 8.70898 10.8242 8.60547 10.793 8.39844C10.793 8.02344 10.8867 7.77734 11.0742 7.66016C11.0742 7.51953 11.1953 7.4082 11.4375 7.32617C11.4375 7.29883 11.5176 7.26953 11.6777 7.23828H11.7422C12.125 7.375 12.3242 7.45703 12.3398 7.48438C12.3828 7.53906 12.4043 7.58984 12.4043 7.63672V7.97656C12.3574 8.25781 12.2578 8.39844 12.1055 8.39844C11.8906 8.37109 11.7832 8.26758 11.7832 8.08789V8.04102C11.8887 7.87695 11.9668 7.78711 12.0176 7.77148H12.1934V7.74805C12.1191 7.63477 11.9746 7.53906 11.7598 7.46094L11.7422 7.4375H11.7188C11.5078 7.55078 11.3145 7.78125 11.1387 8.12891V8.15234C11.1387 8.70312 11.1816 8.97852 11.2676 8.97852C11.5176 9.21289 11.7676 9.35547 12.0176 9.40625C12.3184 9.37109 12.5195 9.30273 12.6211 9.20117C13.0938 8.73242 13.3945 8.32422 13.5234 7.97656L13.5469 7.8418V7.79492C13.3945 7.12695 13.2227 6.65039 13.0312 6.36523C12.9258 6.30273 12.8242 6.16211 12.7266 5.94336C12.5039 5.69727 12.2539 5.51758 11.9766 5.4043C11.3438 5.07227 11.0273 4.82031 11.0273 4.64844L10.9629 4.17383C10.9746 4.04492 11.1191 3.80078 11.3965 3.44141C11.5488 3.35156 11.7715 3.17969 12.0645 2.92578L12.2754 2.83789C12.4785 2.83789 12.8516 2.92578 13.3945 3.10156C13.6328 3.10156 13.8691 2.93164 14.1035 2.5918L14.168 2.56836ZM18.5039 1.56055H18.5273V1.61328C18.3555 1.63672 18.0527 1.81055 17.6191 2.13477C17.2871 2.41992 17.0293 2.80273 16.8457 3.2832C16.6699 3.58008 16.5605 3.88672 16.5176 4.20312C16.4316 4.29297 16.3398 4.625 16.2422 5.19922V5.84961L16.166 6.61133V7.29102L16.1133 7.36719C16.2578 8.1875 16.375 8.59766 16.4648 8.59766C16.6562 9.01953 16.7988 9.23828 16.8926 9.25391C17.166 9.60547 17.4258 9.8418 17.6719 9.96289C17.832 9.96289 17.9668 10.0762 18.0762 10.3027C18.5176 10.4043 18.8848 10.5605 19.1777 10.7715L19.9102 11.1348C20.543 11.3262 20.9688 11.4219 21.1875 11.4219H21.668C22.0391 11.4219 22.2559 11.2578 22.3184 10.9297L22.3418 10.8008C22.3418 10.4844 22.2344 10.3262 22.0195 10.3262C21.832 10.3809 21.7383 10.5117 21.7383 10.7188V10.748C21.7383 10.7988 21.8145 10.8418 21.9668 10.877H21.9902C22.084 10.877 22.1426 10.8242 22.166 10.7188C22.123 10.5781 22.082 10.5078 22.043 10.5078H21.9434L21.8672 10.5898V10.6953L21.9668 10.8008C22.0176 10.8008 22.043 10.748 22.043 10.6426L22.0898 10.6953V10.748L22.0195 10.8242H21.9902C21.8926 10.8242 21.8262 10.7715 21.791 10.666C21.791 10.5762 21.8418 10.498 21.9434 10.4316H22.0195C22.168 10.459 22.2422 10.5293 22.2422 10.6426C22.2422 10.791 22.1836 10.9043 22.0664 10.9824H21.9141C21.7305 10.9473 21.6387 10.8594 21.6387 10.7188V10.6133C21.6387 10.4102 21.7656 10.2793 22.0195 10.2207C22.3359 10.2207 22.4941 10.4648 22.4941 10.9531C22.4941 11.3945 22.1758 11.6641 21.5391 11.7617L21.1406 11.8145C20.5117 11.8145 19.7832 11.5801 18.9551 11.1113L17.3965 10.4082L16.418 9.85742C16.1836 9.75195 15.9824 9.69922 15.8145 9.69922C15.3262 9.74219 14.8496 9.91602 14.3848 10.2207H14.1328C14.0469 10.2207 13.9961 10.1953 13.9805 10.1445V10.1152C14.2969 10.1152 14.707 9.77539 15.2109 9.0957C15.3281 8.95898 15.4277 8.45312 15.5098 7.57812C15.5762 7.57812 15.627 7.16797 15.6621 6.34766V6.03711L15.6855 6.00781L15.6621 5.98438V5.43359L15.7148 5.22266V5.14648L15.6621 4.93555V4.22656C15.6621 3.98828 15.5371 3.69141 15.2871 3.33594L14.8594 3.13086H14.7832C14.6348 3.13086 14.5605 3.19922 14.5605 3.33594C14.5605 3.44141 14.6348 3.49414 14.7832 3.49414L14.8066 3.4707V3.36523L14.6836 3.33594C14.6836 3.30078 14.709 3.2832 14.7598 3.2832C14.8262 3.31055 14.8594 3.33789 14.8594 3.36523V3.4707L14.7832 3.54688H14.707C14.5234 3.52344 14.4316 3.43555 14.4316 3.2832V3.25977C14.4316 3.08398 14.5566 2.99609 14.8066 2.99609L15.4629 3.04883C15.6699 3.04883 16.4395 2.61328 17.7715 1.74219L18.5039 1.56055ZM19.7461 2.82031H20.3555C20.7852 2.82031 21.0898 2.89844 21.2695 3.05469C21.3125 3.05469 21.375 3.10937 21.457 3.21875C21.7578 3.33594 21.9766 3.52344 22.1133 3.78125L22.5117 4.15625C22.5117 4.25391 22.6055 4.43359 22.793 4.69531C22.9492 4.87109 23.0273 5.19141 23.0273 5.65625L23.0508 5.86719V6.80469C22.9023 7.17188 22.7773 7.4375 22.6758 7.60156C22.4531 7.92969 22.2031 8.35156 21.9258 8.86719C21.8945 8.86719 21.8789 8.89844 21.8789 8.96094C21.8047 8.96094 21.5938 9.1875 21.2461 9.64062C21.1289 9.76562 21.0117 9.82812 20.8945 9.82812C20.6484 9.82812 20.4219 9.74219 20.2148 9.57031C20.0156 9.48047 19.7656 9.33984 19.4648 9.14844C19.418 9.14844 19.2383 9.05469 18.9258 8.86719C18.5859 8.71484 18.3594 8.49609 18.2461 8.21094L17.8242 7.32031H17.8008L17.8242 7.20312C17.7578 7.07812 17.7109 6.76562 17.6836 6.26562C17.6367 6.26562 17.6133 6.125 17.6133 5.84375L17.6836 5.79688L17.6602 5.5625V5.16406C17.6602 5.11719 17.707 5.01562 17.8008 4.85938C17.8008 4.77734 17.9336 4.49609 18.1992 4.01562L18.457 3.61719C18.457 3.54297 18.6367 3.37109 18.9961 3.10156C19.1211 3.10156 19.3008 3.01562 19.5352 2.84375L19.7461 2.82031ZM18.3398 5.84375V6.19531C18.3398 6.70703 18.418 7.03516 18.5742 7.17969C18.5742 7.23828 18.6992 7.50391 18.9492 7.97656C19.0938 8.04297 19.3672 8.25391 19.7695 8.60938C20.0781 8.76172 20.3047 8.91797 20.4492 9.07812L20.7539 9.14844L21.1758 8.86719C21.3711 8.70703 21.5664 8.42578 21.7617 8.02344C22.1055 7.30469 22.2773 6.67188 22.2773 6.125C22.2148 5.72266 22.1133 5.40234 21.9727 5.16406C21.9375 4.94922 21.7656 4.64453 21.457 4.25L21.0117 3.89844L20.3086 3.61719H20.1211C20.0195 3.61719 19.7852 3.75 19.418 4.01562C19.1602 4.24219 18.9414 4.53125 18.7617 4.88281L18.3398 5.84375ZM25.8281 0.845703C26 0.943359 26.2617 1.17188 26.6133 1.53125C27.1328 1.88281 27.6562 2.17578 28.1836 2.41016C28.4922 2.53516 28.6797 2.63281 28.7461 2.70312L28.6992 2.75H28.623L28.3535 2.72656C27.9277 2.79688 27.7148 2.92773 27.7148 3.11914C27.5195 3.41602 27.4219 4.24414 27.4219 5.60352V5.91992L27.375 6.14258C27.3906 6.49023 27.4219 6.7168 27.4688 6.82227L27.5215 9.28906V9.38867L27.5684 9.58203V10.0215C27.5684 10.4824 27.6836 10.7832 27.9141 10.9238L28.0371 10.9707C28.127 10.9434 28.1914 10.8789 28.2305 10.7773C28.207 10.6641 28.1738 10.6074 28.1309 10.6074H28.1074L28.0605 10.6543V10.707L28.1074 10.7773H28.0605L28.0137 10.7305V10.707C28.0215 10.6094 28.0449 10.5605 28.084 10.5605H28.1836C28.2812 10.6152 28.3301 10.6875 28.3301 10.7773C28.2871 11.0039 28.1895 11.1172 28.0371 11.1172H28.0137C27.7207 11.1172 27.4004 10.9961 27.0527 10.7539C26.8926 10.7188 26.8125 10.6855 26.8125 10.6543C26.9922 10.5215 27.082 10.4004 27.082 10.291C27.0312 10.0059 26.8906 9.58984 26.6602 9.04297L26.3203 8.09375C26.3203 8.01172 26.2637 7.83203 26.1504 7.55469C26.1504 7.49219 26.0098 7.19922 25.7285 6.67578C25.5293 6.07812 25.4004 5.77734 25.3418 5.77344H25.3125C25.207 5.77344 25.0859 6.30273 24.9492 7.36133L24.9199 7.38477V7.46094L25.043 7.90039V8.2168L25.2422 9.21875C25.3438 9.41016 25.498 9.58789 25.7051 9.75195C25.7207 9.80273 25.918 9.9082 26.2969 10.0684V10.0918L26.2441 10.1445C25.9434 10.1445 25.4609 10.0059 24.7969 9.72852L24.3809 9.70508H24.2871C24.2012 9.70508 23.8418 9.85156 23.209 10.1445H23.0859V10.1211C23.2344 10 23.3887 9.83594 23.5488 9.62891C23.7363 9.59766 23.957 9.27344 24.2109 8.65625L24.4102 7.99414V7.75391L24.457 7.67773V7.53125L24.5039 7.14453V7.06836L24.5273 6.35938L24.5039 5.62695V5.38672L24.4805 5.2168L24.5273 5.16406C24.4297 4.71875 24.3242 4.32812 24.2109 3.99219C23.9883 3.50781 23.7598 3.26562 23.5254 3.26562H23.1621C22.8652 3.26562 22.7168 3.3457 22.7168 3.50586C22.752 3.60352 22.8184 3.65234 22.916 3.65234C22.9824 3.62891 23.0156 3.60547 23.0156 3.58203V3.45898L22.8691 3.43555L22.916 3.38281C23.0449 3.38281 23.1094 3.44922 23.1094 3.58203C23.0859 3.69531 23.0293 3.75195 22.9395 3.75195C22.709 3.72461 22.5938 3.62695 22.5938 3.45898V3.43555C22.6133 3.24023 22.7051 3.14258 22.8691 3.14258H23.0859C23.3633 3.14258 23.7461 2.93945 24.2344 2.5332C24.4023 2.37305 24.5664 2.25781 24.7266 2.1875C24.7383 2.15234 24.8613 2.08008 25.0957 1.9707C25.2363 1.86914 25.3828 1.80469 25.5352 1.77734H25.582L25.6348 1.82422C25.1777 2.17578 24.9492 2.46875 24.9492 2.70312V2.72656C24.9492 2.91016 25.0879 3.37305 25.3652 4.11523C25.4199 4.13086 25.4609 4.26172 25.4883 4.50781C25.5352 4.50781 25.5586 4.61328 25.5586 4.82422C25.6914 5.05859 25.7578 5.24609 25.7578 5.38672C26.0312 5.72266 26.1777 6.03125 26.1973 6.3125C26.2402 6.32031 26.3789 6.62891 26.6133 7.23828H26.6367C26.6367 7.19141 26.6699 7.14258 26.7363 7.0918L26.8359 6.48242V6.24219L26.959 5.33398C26.959 4.58398 26.918 3.89453 26.8359 3.26562L26.7598 3.18945V3.06641L26.7832 3.04297V3.01953C26.7363 3.01953 26.7051 2.88086 26.6895 2.60352C26.627 2.60352 26.5781 2.44141 26.543 2.11719C26.4492 1.82813 26.2363 1.44531 25.9043 0.96875L25.8047 0.869141L25.8281 0.845703Z" fill="white"/>
</svg>
